# Blender v2.79 (sub 0) OBJ File: 'playbutton.blend'
# www.blender.org
o Plane
v 0.152379 -0.347664 0.461954
v -0.152379 -0.347664 0.461954
v 0.152379 -0.042905 0.461954
v -0.152379 -0.042905 0.461954
vt 0.000100 0.000100
vt 0.999900 0.000100
vt 0.999900 0.999900
vt 0.000100 0.999900
vn -0.0000 -0.0000 -1.0000
g Plane_Plane_text
s off
f 1/1/1 2/2/1 4/3/1 3/4/1
o Cube.002
v -0.317268 -0.409359 0.500000
v -0.317268 0.409359 0.500000
v -0.317268 -0.409359 0.463576
v -0.317268 0.409359 0.463576
v 0.317268 -0.409359 0.500000
v 0.317268 0.409359 0.500000
v 0.317268 -0.409359 0.463576
v 0.317268 0.409359 0.463576
v -0.353372 -0.455944 0.463576
v -0.353372 -0.455944 0.500000
v -0.353372 0.455944 0.500000
v -0.353372 0.455944 0.463576
v 0.353372 -0.455944 0.463576
v 0.353372 0.455944 0.463576
v 0.353372 -0.455944 0.500000
v 0.353372 0.455944 0.500000
v 0.317268 0.409359 0.441262
v 0.353372 0.455944 0.441262
v -0.317268 0.409359 0.441262
v -0.317268 -0.409359 0.441262
v 0.317268 -0.409359 0.441262
v -0.353372 0.455944 0.441262
v -0.353372 -0.455944 0.441262
v 0.353372 -0.455944 0.441262
vt 0.364874 1.287146
vt 0.364874 0.553836
vt 0.392180 0.553836
vt 0.392180 1.287146
vt -0.500000 1.500000
vt -0.500000 0.553836
vt 0.276508 0.553836
vt 0.276508 1.500000
vt 1.274321 0.553836
vt 1.274321 -0.500000
vt 1.301627 -0.500000
vt 1.301628 0.553836
vt 0.409057 0.500000
vt 0.409056 -0.446164
vt 1.185565 -0.446164
vt 1.185565 0.500000
vt 1.229748 0.553836
vt 0.364874 0.553836
vt 1.229747 -0.500000
vt 1.328934 0.553836
vt 1.328934 -0.500000
vt 1.373507 -0.500000
vt 1.373507 0.553836
vt 1.400814 1.133519
vt 1.400814 0.316759
vt 1.445387 0.316759
vt 1.445387 1.133519
vt 1.418081 -0.500000
vt 1.418081 0.316759
vt 1.373507 0.316759
vt 0.364874 -0.500000
vt 1.445387 0.446164
vt 1.445387 -0.500000
vt 1.472693 -0.500000
vt 1.472694 0.446164
vt 1.445387 -0.500000
vt 1.445387 0.316759
vt -0.455817 0.500000
vt 0.320691 0.500000
vt 0.364874 0.553836
vt -0.500000 0.553836
vt 0.320691 -0.446164
vt 0.364874 -0.500000
vt -0.455817 -0.446164
vt -0.500000 -0.500000
vt 1.301627 0.553836
vt 1.301628 -0.500000
vt 1.373507 1.133519
vt 1.373507 0.316759
vt 0.364874 0.553836
vt 0.364874 1.287146
vt 0.337568 1.287146
vt 0.337567 0.553836
vt 1.472694 0.446164
vt 1.472694 -0.500000
vt 1.500000 -0.500000
vt 1.500000 0.446164
vn 0.0000 1.0000 0.0000
vn 0.0000 0.0000 -1.0000
vn -1.0000 0.0000 0.0000
vn 0.0000 0.0000 1.0000
vn 1.0000 0.0000 0.0000
vn 0.0000 -1.0000 0.0000
g Cube.002_Cube.002_black
s off
f 7/5/2 11/6/2 25/7/2 24/8/2
f 7/9/3 8/10/3 12/11/3 11/12/3
f 13/13/4 16/14/4 26/15/4 27/16/4
f 9/17/5 10/18/5 6/19/5 5/20/5
f 9/17/5 5/20/5 14/21/5 19/22/5
f 5/20/5 6/19/5 15/23/5 14/21/5
f 14/21/4 15/23/4 16/14/4 13/13/4
f 17/24/6 18/25/6 20/26/6 19/27/6
f 13/28/7 17/29/7 19/30/7 14/31/7
f 18/32/2 16/33/2 15/34/2 20/26/2
f 6/19/5 10/18/5 20/35/5 15/23/5
f 10/18/5 9/17/5 19/22/5 20/35/5
f 11/36/4 12/37/4 21/38/4 25/39/4
f 16/33/2 18/32/2 22/40/2 26/41/2
f 24/42/3 25/43/3 28/44/3 27/45/3
f 25/43/3 21/46/3 22/47/3 28/44/3
f 21/46/3 23/48/3 26/49/3 22/47/3
f 23/48/3 24/42/3 27/45/3 26/49/3
f 18/25/6 17/24/6 28/50/6 22/51/6
f 17/29/7 13/28/7 27/52/7 28/53/7
f 12/54/7 8/55/7 23/56/7 21/57/7
f 8/58/6 7/59/6 24/60/6 23/61/6
o Cube.001
v -0.220532 0.007810 0.485309
v -0.220532 0.316555 0.485309
v -0.220532 0.316555 0.417531
v -0.220532 0.007810 0.417531
v 0.220532 0.007810 0.417531
v 0.220532 0.007810 0.485309
v 0.220532 0.316555 0.485309
v 0.220532 0.316555 0.417531
v -0.100000 0.162182 0.417531
v 0.050000 0.075580 0.417531
v 0.050000 0.248785 0.417531
v -0.100000 0.162182 0.440529
v 0.050000 0.075580 0.440529
v 0.050000 0.248785 0.440529
vt 0.500000 0.700000
vt 0.500000 0.000000
vt 0.750000 0.000000
vt 0.750000 0.700000
vt 0.250000 1.000000
vt 0.250000 0.000000
vt 0.500000 0.000000
vt 0.500000 1.000000
vt -0.322960 -0.322960
vt 0.351859 -0.322960
vt 0.351860 0.645228
vt -0.322960 0.645228
vt 0.250000 0.000000
vt 0.250000 1.000000
vt 0.000000 1.000000
vt 0.000000 0.000000
vt 0.689270 0.380646
vt 1.026679 0.645228
vt 0.351860 0.645228
vt 0.499984 0.051378
vt 0.878555 0.051378
vt 0.351860 -0.322960
vt 1.026679 -0.322960
vt 1.000000 0.000000
vt 1.000000 0.700000
vt 0.750000 0.700000
vt 0.750000 0.000000
vt 0.203299 0.645228
vt 0.203299 1.012479
vt 0.153033 1.012479
vt 0.153033 0.645228
vt 0.402125 0.645228
vt 0.402126 1.025434
vt 0.351860 1.025434
vt 0.351860 0.645228
vt -0.322960 0.835331
vt 0.004893 0.645228
vt 0.004893 1.025434
vt 0.301594 1.012479
vt 0.301594 0.645228
vt 0.351860 1.012479
vn -1.0000 0.0000 0.0000
vn 0.0000 -1.0000 0.0000
vn 0.0000 0.0000 1.0000
vn 0.0000 1.0000 0.0000
vn 0.0000 0.0000 -1.0000
vn 1.0000 0.0000 0.0000
vn 0.5000 0.8660 0.0000
vn 0.5000 -0.8660 0.0000
g Cube.001_Cube.001_gold
s off
f 29/62/8 30/63/8 31/64/8 32/65/8
f 32/66/9 33/67/9 34/68/9 29/69/9
f 34/70/10 35/71/10 30/72/10 29/73/10
f 36/74/11 31/75/11 30/76/11 35/77/11
f 37/78/12 32/79/12 31/80/12 39/81/12
f 38/82/12 39/81/12 36/83/12 33/84/12
f 33/85/13 36/86/13 35/87/13 34/88/13
f 36/83/12 39/81/12 31/80/12
f 32/79/12 37/78/12 38/82/12 33/84/12
g Cube.001_Cube.001_gold_dark
f 38/89/14 37/90/14 40/91/14 41/92/14
f 39/93/8 38/94/8 41/95/8 42/96/8
f 40/97/12 42/98/12 41/99/12
f 37/100/15 39/101/15 42/96/15 40/102/15
